<svg xmlns="http://www.w3.org/2000/svg" width="518.74" height="601.21" viewBox="0 0 518.74 601.21"><title>SOLITA_BLACK_VER_RGB</title><g id="Layer_2" data-name="Layer 2"><g id="Layer_1-2" data-name="Layer 1"><rect x="85.5" y="223.51" width="111.75" height="223.51" fill="#282828"/><rect x="342.53" width="111.75" height="223.51" fill="#282828"/><rect x="214.01" width="111.75" height="447.01" fill="#282828"/><path d="M95.05,551.51a49.51,49.51,0,1,1,49.44,49.7A49.42,49.42,0,0,1,95.05,551.51Zm75.82,0c0-14.85-11.4-27-26.38-27s-26.11,12.19-26.11,27,11,26.91,26.11,26.91S170.87,566.22,170.87,551.51Z" fill="#282828"/><path d="M214,503.12H237.2v74.63h42.16v22.14H214Z" fill="#282828"/><path d="M302.55,503.12h23.2v96.77h-23.2Z" fill="#282828"/><path d="M375,525.26H347.5V503.12h78.12v22.14H398.16v74.63H375Z" fill="#282828"/><path d="M460.68,503.12H483l35.79,96.77H495.28l-5-14.45h-37l-5,14.45H424.89Zm-.26,62.17h22.8l-11.4-32.47Z" fill="#282828"/><path d="M0,581.86l15.26-15.22c7.73,9.38,15.8,13,28.75,13,7.82,0,12.06-3.71,12.06-9,0-6.49-6.36-7.82-20-11.13-14-3.18-30.48-8.35-30.48-28.23,0-16.84,14.71-29.7,35.39-29.7,17.76,0,28.17,6,38.51,17.17l-14.1,14.09c-7-7.92-13.56-11-24.94-11-7.82,0-11.53,4.25-11.53,8.62,0,6,8,7.16,19.62,9.94,14.44,3.32,31.54,8.35,31.54,29.16,0,18.3-15.51,31.68-36.85,31.68S9.15,592.86,0,581.86Z" fill="#282828"/></g></g></svg>